<svg width="452" height="93" viewBox="0 0 452 93" fill="none" xmlns="http://www.w3.org/2000/svg">
<path d="M9.92305 65V13.9H18.323L33.933 57.65C33.8397 56.4833 33.723 55.06 33.583 53.38C33.4897 51.6533 33.3964 49.8567 33.303 47.99C33.2564 46.0767 33.233 44.28 33.233 42.6V13.9H39.3231V65H30.923L15.383 21.25C15.4764 22.37 15.5697 23.7933 15.663 25.52C15.7564 27.2 15.8264 28.9967 15.873 30.91C15.9664 32.7767 16.013 34.5733 16.013 36.3V65H9.92305ZM51.5457 65V59.26H65.1957V32.24H53.2957V26.5H71.4957V59.26H84.4457V65H51.5457ZM67.6457 19.57C66.1057 19.57 64.8924 19.1733 64.0057 18.38C63.119 17.5867 62.6757 16.5133 62.6757 15.16C62.6757 13.76 63.119 12.6633 64.0057 11.87C64.8924 11.03 66.1057 10.61 67.6457 10.61C69.1857 10.61 70.399 11.03 71.2857 11.87C72.1724 12.6633 72.6157 13.76 72.6157 15.16C72.6157 16.5133 72.1724 17.5867 71.2857 18.38C70.399 19.1733 69.1857 19.57 67.6457 19.57ZM94.0084 77.6V26.5H100.308V33.85H101.568L100.308 35.32C100.308 32.38 101.265 30.07 103.178 28.39C105.138 26.6633 107.705 25.8 110.878 25.8C114.752 25.8 117.832 27.0833 120.118 29.65C122.452 32.17 123.618 35.6467 123.618 40.08V51.35C123.618 54.29 123.082 56.8333 122.008 58.98C120.982 61.1267 119.512 62.7833 117.598 63.95C115.732 65.1167 113.492 65.7 110.878 65.7C107.752 65.7 105.208 64.8367 103.248 63.11C101.288 61.3833 100.308 59.0733 100.308 56.18L101.568 57.65H100.168L100.308 66.4V77.6H94.0084ZM108.778 60.24C111.438 60.24 113.515 59.4467 115.008 57.86C116.548 56.2733 117.318 53.9867 117.318 51V40.5C117.318 37.5133 116.548 35.2267 115.008 33.64C113.515 32.0533 111.438 31.26 108.778 31.26C106.212 31.26 104.158 32.0767 102.618 33.71C101.078 35.3433 100.308 37.6067 100.308 40.5V51C100.308 53.8933 101.078 56.1567 102.618 57.79C104.158 59.4233 106.212 60.24 108.778 60.24ZM150.541 65.7C147.508 65.7 144.848 65.0933 142.561 63.88C140.321 62.6667 138.571 60.9633 137.311 58.77C136.098 56.53 135.491 53.94 135.491 51V40.5C135.491 37.5133 136.098 34.9233 137.311 32.73C138.571 30.5367 140.321 28.8333 142.561 27.62C144.848 26.4067 147.508 25.8 150.541 25.8C153.574 25.8 156.211 26.4067 158.451 27.62C160.738 28.8333 162.488 30.5367 163.701 32.73C164.961 34.9233 165.591 37.5133 165.591 40.5V47.29H141.651V51C141.651 54.0333 142.421 56.3667 143.961 58C145.501 59.5867 147.694 60.38 150.541 60.38C152.968 60.38 154.928 59.96 156.421 59.12C157.914 58.2333 158.824 56.9267 159.151 55.2H165.451C165.031 58.42 163.444 60.9867 160.691 62.9C157.984 64.7667 154.601 65.7 150.541 65.7ZM159.431 43.09V40.5C159.431 37.4667 158.661 35.1333 157.121 33.5C155.628 31.8667 153.434 31.05 150.541 31.05C147.694 31.05 145.501 31.8667 143.961 33.5C142.421 35.1333 141.651 37.4667 141.651 40.5V42.53H159.921L159.431 43.09ZM179.284 65V26.5H185.444V33.85H186.914L184.884 38.4C184.884 34.2467 185.77 31.12 187.544 29.02C189.364 26.8733 192.047 25.8 195.594 25.8C199.654 25.8 202.874 27.0833 205.254 29.65C207.68 32.17 208.894 35.6 208.894 39.94V42.25H202.594V40.5C202.594 37.4667 201.847 35.1567 200.354 33.57C198.907 31.9367 196.83 31.12 194.124 31.12C191.464 31.12 189.364 31.9367 187.824 33.57C186.33 35.2033 185.584 37.5133 185.584 40.5V65H179.284ZM236.726 65.7C233.553 65.7 231.01 64.86 229.096 63.18C227.183 61.4533 226.226 59.12 226.226 56.18L227.486 57.65H226.226V65H219.926V13.9H226.226V25.1L226.086 33.85H227.486L226.226 35.32C226.226 32.4267 227.183 30.1167 229.096 28.39C231.056 26.6633 233.6 25.8 236.726 25.8C240.6 25.8 243.703 27.0833 246.036 29.65C248.37 32.2167 249.536 35.7167 249.536 40.15V51.42C249.536 55.8067 248.37 59.2833 246.036 61.85C243.703 64.4167 240.6 65.7 236.726 65.7ZM234.626 60.24C237.286 60.24 239.386 59.4467 240.926 57.86C242.466 56.2733 243.236 53.9867 243.236 51V40.5C243.236 37.5133 242.466 35.2267 240.926 33.64C239.386 32.0533 237.286 31.26 234.626 31.26C232.06 31.26 230.006 32.0767 228.466 33.71C226.973 35.3433 226.226 37.6067 226.226 40.5V51C226.226 53.8933 226.973 56.1567 228.466 57.79C230.006 59.4233 232.06 60.24 234.626 60.24ZM276.459 65.56C273.379 65.56 270.719 64.9767 268.479 63.81C266.239 62.6433 264.489 60.9633 263.229 58.77C262.016 56.53 261.409 53.8933 261.409 50.86V40.64C261.409 37.56 262.016 34.9233 263.229 32.73C264.489 30.5367 266.239 28.8567 268.479 27.69C270.719 26.5233 273.379 25.94 276.459 25.94C279.539 25.94 282.199 26.5233 284.439 27.69C286.679 28.8567 288.406 30.5367 289.619 32.73C290.879 34.9233 291.509 37.5367 291.509 40.57V50.86C291.509 53.8933 290.879 56.53 289.619 58.77C288.406 60.9633 286.679 62.6433 284.439 63.81C282.199 64.9767 279.539 65.56 276.459 65.56ZM276.459 59.96C279.212 59.96 281.359 59.19 282.899 57.65C284.439 56.11 285.209 53.8467 285.209 50.86V40.64C285.209 37.6533 284.439 35.39 282.899 33.85C281.359 32.31 279.212 31.54 276.459 31.54C273.752 31.54 271.606 32.31 270.019 33.85C268.479 35.39 267.709 37.6533 267.709 40.64V50.86C267.709 53.8467 268.479 56.11 270.019 57.65C271.606 59.19 273.752 59.96 276.459 59.96ZM303.872 65V26.5H310.172V33.85H311.502L310.172 35.32C310.172 32.2867 311.082 29.9533 312.902 28.32C314.722 26.64 317.242 25.8 320.462 25.8C324.335 25.8 327.415 26.99 329.702 29.37C331.988 31.75 333.132 34.9933 333.132 39.1V65H326.832V39.8C326.832 37.0467 326.085 34.9467 324.592 33.5C323.145 32.0067 321.162 31.26 318.642 31.26C316.028 31.26 313.952 32.0533 312.412 33.64C310.918 35.2267 310.172 37.5133 310.172 40.5V65H303.872ZM358.164 65.7C354.338 65.7 351.234 64.4167 348.854 61.85C346.521 59.2833 345.354 55.8067 345.354 51.42V40.15C345.354 35.7167 346.521 32.2167 348.854 29.65C351.188 27.0833 354.291 25.8 358.164 25.8C361.338 25.8 363.881 26.6633 365.794 28.39C367.708 30.1167 368.664 32.4267 368.664 35.32L367.404 33.85H368.804L368.664 25.1V13.9H374.964V65H368.664V57.65H367.404L368.664 56.18C368.664 59.12 367.708 61.4533 365.794 63.18C363.881 64.86 361.338 65.7 358.164 65.7ZM360.264 60.24C362.878 60.24 364.931 59.4233 366.424 57.79C367.918 56.1567 368.664 53.8933 368.664 51V40.5C368.664 37.6067 367.918 35.3433 366.424 33.71C364.931 32.0767 362.878 31.26 360.264 31.26C357.604 31.26 355.504 32.0533 353.964 33.64C352.424 35.2267 351.654 37.5133 351.654 40.5V51C351.654 53.9867 352.424 56.2733 353.964 57.86C355.504 59.4467 357.604 60.24 360.264 60.24Z" fill="#232323"/>
<path d="M446.333 89.9136C446.329 88.4409 447.52 87.244 448.993 87.2403C450.466 87.2366 451.663 88.4275 451.666 89.9002C451.67 91.373 450.479 92.5699 449.006 92.5736C447.534 92.5773 446.337 91.3864 446.333 89.9136ZM8.00035 90.6079L448.998 89.4069L449.001 90.4069L8.00307 91.6079L8.00035 90.6079Z" fill="black"/>
</svg>
